<svg width="83" height="111" viewBox="0 0 83 111" fill="none" xmlns="http://www.w3.org/2000/svg">
<path d="M5.09517 65.4153C10.6425 62.3498 14.9684 57.2998 17.294 51.1745C17.6747 50.2117 18.16 49.2985 18.7401 48.4532C19.6527 47.0923 20.8733 45.9926 22.2915 45.254C23.7096 44.5154 25.2804 44.1611 26.8615 44.2233C28.2635 44.1773 29.6569 44.4712 30.9339 45.0824C32.2108 45.6936 33.3373 46.6057 34.2263 47.7482C34.6273 48.2557 34.99 48.7955 35.3109 49.3626L52.4173 40.2753C52.4173 38.3327 51.6844 36.4696 50.3798 35.0959C49.0753 33.7222 47.3059 32.9505 45.461 32.9505H36.8642V39.1191H36.6701C33.617 34.1419 29.0241 31.6533 22.8912 31.6533C16.0308 31.6533 10.5005 34.297 6.30031 39.5845C2.10015 44.8719 8.27511e-05 52.0064 8.27511e-05 60.9879C-0.0044468 63.2818 0.176982 65.572 0.542398 67.8334L5.09517 65.4153Z" fill="#48AD50"/>
<path d="M37.0515 59.43V60.5298C37.0515 64.8161 36.0584 68.2636 34.0721 70.872C33.1575 72.1261 31.974 73.1344 30.6183 73.8144C29.2626 74.4945 27.7733 74.827 26.2722 74.7847C24.7906 74.8444 23.3175 74.524 21.9797 73.851C20.6418 73.178 19.4795 72.1725 18.5927 70.9214C18.4789 70.7663 18.3784 70.59 18.2646 70.4279L4.45898 78.507C4.83392 79.0781 5.22226 79.6421 5.64406 80.1779C9.42019 84.9436 14.5242 87.3264 20.9561 87.3264C27.879 87.3264 33.1125 84.3561 36.6565 78.4154H36.8641V82.6454C36.8641 87.6555 35.4223 91.6199 32.5389 94.5385C29.6555 97.4572 25.5848 98.9188 20.3268 98.9235C14.7814 98.8447 9.35834 97.1962 4.62637 94.1507L6.18637 107.94C10.1589 109.975 15.5396 110.995 22.3286 111C32.5992 111 38.886 108.293 44.3025 102.886C49.7189 97.4783 52.4238 89.8503 52.4238 80.0016V50.4414L37.0515 59.43Z" fill="#2A327E"/>
<path d="M47.5766 28.0304C47.5766 28.0304 32.4252 24.5477 39.8101 0C39.8101 0 56.3206 11.6605 53.2006 24.3433C53.2006 24.3433 58.0547 13.705 67.187 12.6828C72.3509 12.164 77.4375 10.9971 82.3384 9.20716C82.3384 9.20716 76.5135 36.8216 57.0839 31.506C57.0839 31.506 68.4658 28.961 72.8245 20.0499C72.8245 20.0499 48.1524 40.7131 42.6957 12.295C42.7024 12.2739 40.9549 15.1432 47.5766 28.0304Z" fill="#48AD50"/>
</svg>
